PathFileType	4	(X/Y/Z)	38_1_7_p0_0-555.trc
DataRate	CameraRate	NumFrames	NumMarkers	Units	OrigDataRate	OrigDataStartFrame	OrigNumFrames
50.0	50.0	7	27	m	50.0	347	556
Frame#	Time	RHip			RKnee			RAnkle			RBigToe			RSmallToe			RHeel			LHip			LKnee			LAnkle			LBigToe			LSmallToe			LHeel			Neck			Head			Nose			RShoulder			RElbow			RWrist			RThumb			RIndex			RPinky			LShoulder			LElbow			LWrist			LThumb			LIndex			LPinky			
		X1	Y1	Z1	X2	Y2	Z2	X3	Y3	Z3	X4	Y4	Z4	X5	Y5	Z5	X6	Y6	Z6	X7	Y7	Z7	X8	Y8	Z8	X9	Y9	Z9	X10	Y10	Z10	X11	Y11	Z11	X12	Y12	Z12	X13	Y13	Z13	X14	Y14	Z14	X15	Y15	Z15	X16	Y16	Z16	X17	Y17	Z17	X18	Y18	Z18	X19	Y19	Z19	X20	Y20	Z20	X21	Y21	Z21	X22	Y22	Z22	X23	Y23	Z23	X24	Y24	Z24	X25	Y25	Z25	X26	Y26	Z26	X27	Y27	Z27	
347	6.94	0.3908263229481546	0.6898954436666894	0.5483701292264814	0.3949600400163489	0.8791745798564682	0.9711306632602157	0.3590148528776563	1.0242905336640247	1.3602186640518885	0.3224081414059707	0.8900849280559526	1.4380853116117898	0.3900751941438329	0.9009581807816321	1.43404848013803	0.34603377091435533	1.144272123012126	1.406846644919445	0.170550918198409	0.6767495335008438	0.5386634800847402	0.187998839806405	0.8940360906052612	0.9558501099948294	0.18935934200942925	1.0576590577833274	1.3418137941865784	0.17270948022134558	0.8984805353436343	1.4134928804894165	0.113920478669882	0.950112440930519	1.4083588961754894	0.2069096125458439	1.124609261818417	1.406951544013257	0.2744756955537917	0.5233533027964222	-0.08196063756301111	0.2605129865004519	0.42215495411385984	-0.3234437370141135	0.25875993035954836	0.3360272677915522	-0.1740074584622524	0.44589288123680293	0.517454598715508	0.020446077616528526	0.5176156507281819	0.6198437295551816	0.29390708234803314	0.49613624262403766	0.6488368070192585	0.5799195545145569	0.4249791434737105	0.6719584804302529	0.6928603140594678	0.44758344408836026	0.6181041849154294	0.7043828955520779	0.4761628274328291	0.6314974693718926	0.7067615713476078	0.09920734475874689	0.5652801545949222	0.012188074819832202	0.058342152327583774	0.674907689883207	0.2801324788303724	0.05132147201678336	0.6597469834407379	0.5526656843420282	0.11757086242190751	0.6486003305406094	0.6656975218452253	0.09049443454154545	0.7041567120404695	0.7139947429527341	0.055946223817893874	0.7133400006532191	0.7074418484840249
348	6.96	0.39083087037429937	0.6901285415615969	0.548452330105481	0.39532277943393146	0.883326220112423	0.9800056656091477	0.3590326519824847	1.0243602463941555	1.3602291393312875	0.32158413930196983	0.8876482703851015	1.433613938130158	0.38621538497271984	0.8902499007313412	1.4341284350801822	0.34742499684166506	1.1478249477847637	1.411817800567649	0.1722077311559707	0.7035076177570333	0.5395657556804283	0.18815852246797818	0.8939649395003042	0.9557828667961191	0.18966355057437218	1.057099434707377	1.3462439206394554	0.17290099399057188	0.8983671187122303	1.413289696835398	0.12201749829958208	0.9341229433629901	1.403742249742262	0.20534226291768967	1.1464912345531884	1.4179992829239263	0.27447421767653607	0.5233556772945654	-0.08192034484163292	0.25642130324587353	0.41307225259377633	-0.31760587573321764	0.25867846486263973	0.33640766177696574	-0.17100799054924903	0.44585190481145703	0.5174919133374406	0.02047269937189701	0.5179996606742754	0.6200088064774698	0.2938240207394966	0.4961315313046524	0.6487491497738163	0.5799629467619782	0.426711106754162	0.6567505151319304	0.6916850780281728	0.448535867288212	0.620024661300201	0.708242864004723	0.47618650090748194	0.6314396476991148	0.7068691860476602	0.09923570924887122	0.5652606259812096	0.01224845574453213	0.058010245932739145	0.6727420749054619	0.27622487582675653	0.05127524476722825	0.6595148730121643	0.5524969393937935	0.11667608549135595	0.6496091589019857	0.6645192677072428	0.08235399725493697	0.7033013063136352	0.7100075066752622	0.04837508915669278	0.7130138980155263	0.6995924068029589
349	6.98	0.39082024758905415	0.6900710092382457	0.5484833575729069	0.39530961438364437	0.8835679423710113	0.980168875534623	0.35816499704974825	1.0258110184975404	1.364583613020678	0.3177536417220108	0.8776799536218134	1.4339116882973162	0.38609016679267605	0.8899382041200221	1.4340628318376496	0.3474609199868042	1.1479750963129038	1.4119349504403915	0.17220119203831147	0.7034518344783006	0.5395633613934446	0.18809453603082496	0.8936255615572034	0.9557712054407353	0.1896868633322935	1.0572963581992705	1.3463797447078163	0.17280855163888503	0.8982247878588168	1.4133813641399087	0.12197077227441802	0.9341195087816243	1.4038119644363556	0.20539816761095234	1.1466638162364875	1.4180917717629646	0.2745025080734488	0.5233150377590478	-0.0818974276867043	0.25625279432662496	0.4115464012781657	-0.32028843780930977	0.2549057210659467	0.33766422157071113	-0.1678506616635538	0.4458217477160287	0.51745086278257	0.02048375394808032	0.5179053193107592	0.6199512808911485	0.29378666672155884	0.4961696952072621	0.6488130334165698	0.5799001633175266	0.42671482943608435	0.6571073743897164	0.6916590779479704	0.44850416462950093	0.6203709235900025	0.7082390180249297	0.47633112593858107	0.631862132095556	0.706907688406124	0.09917710072421189	0.5651002366110359	0.012302838930475497	0.057987073244387746	0.6728002686196387	0.27624075936937503	0.051275376818514434	0.6596450570724927	0.5524914316982772	0.11658125175377525	0.6497335393302112	0.6647542763829626	0.08297714480509429	0.7056429977422194	0.7140323495189161	0.048417240162330094	0.7131298415872087	0.6996408178371113
350	7.0	0.390807687166772	0.690060216061634	0.5485348940347176	0.3953211025268209	0.8838279613753192	0.9802496716815846	0.3581802576016999	1.025951532600285	1.364595994626737	0.321508150079123	0.8872575849985024	1.4334490174039372	0.3860615677467663	0.8898990805282607	1.4340454806966592	0.3474326863259107	1.1478158185931997	1.4118280260789964	0.17510648520430055	0.689070851847285	0.5392634644476216	0.18809558230663534	0.8936054495655906	0.9556734483489465	0.18866123197650939	1.0585924696231022	1.3508519973628688	0.1729210595279633	0.8984362839227032	1.4133615853122223	0.12109728582358241	0.9356391921617796	1.4075620155305455	0.20554685242917659	1.1473006828108616	1.418327387532897	0.2744691011076161	0.5233501628768052	-0.08187917915673622	0.25622746502541077	0.411657114622175	-0.3202794618710602	0.2587756959904169	0.3367499653892708	-0.16770952540509346	0.445809401926386	0.5174544000245193	0.02048545870947849	0.5178239517428456	0.6199288653008601	0.2938278911876704	0.49613649759067374	0.648875241808919	0.579969827608629	0.42677699580609596	0.6572073267677125	0.6916400702973947	0.4535231126674548	0.6311296268325134	0.709248832215833	0.4762706838810658	0.6314267811743057	0.7069433100273067	0.09919212802563222	0.5649809101179756	0.012338784455406229	0.058377288259620165	0.6752123547513285	0.2800885794125711	0.0506210296540563	0.6610303703133363	0.5525662752653205	0.11029122828491653	0.6779850968959092	0.6667088772312716	0.08272136104073598	0.7065778998754767	0.7140824101404764	0.05219247107534346	0.7263768451983088	0.700530393032358
351	7.02	0.39075866173938306	0.6900565553586503	0.5484727500239199	0.3953170648709366	0.8836829957671677	0.9801028857117402	0.3590021781237781	1.0243250614718429	1.3602659409381008	0.316634622108519	0.8748935494295229	1.4295665223036127	0.3850199541540866	0.8872261421968382	1.4295529231504518	0.34746053170427893	1.1479532198520914	1.4118730473832235	0.17223234241192922	0.7036728955141642	0.5396080394813345	0.18816689990483498	0.8936995419813611	0.9557002782231601	0.1888346357945874	1.0585268619304509	1.3508338517596161	0.17103195335293628	0.8967352573382266	1.4121768236646641	0.12117756053009185	0.9350069712937198	1.4071773328794241	0.20582565507353953	1.1475504205671958	1.4182585461684727	0.27447058199308355	0.5234054738945899	-0.08187147505113207	0.2561535002204876	0.4116853076705658	-0.32025172508893923	0.25881786512036764	0.33673956306617286	-0.16771013686884317	0.4458514583307138	0.5175599382506657	0.02049351033965554	0.5178909921856586	0.6199998628424602	0.2938459550174955	0.4961308706141532	0.6488692758697254	0.5799363123908341	0.4266295362990226	0.656625336134248	0.6916803046302107	0.44849279467255704	0.6199312677649567	0.708236174235092	0.47621922126625454	0.6313788935746164	0.7068555080271827	0.09919063544456952	0.5651160108686103	0.012324051957847415	0.05502282812763929	0.6892888387029128	0.279250799029771	0.05123254701615557	0.6600835949664081	0.5488212153467524	0.11348642246374685	0.6639973988705649	0.665581438719445	0.08692429921023766	0.718801784200766	0.7151641979419124	0.048383743479126655	0.7138290021060951	0.6994746256492973
352	7.04	0.3907371252962571	0.690019156309573	0.5484380663044515	0.39535265152293675	0.8836076673797177	0.9800481645552939	0.35904579081947086	1.0243792647523653	1.3602439685173398	0.32168742838103936	0.8880746173318834	1.4338109682160134	0.3852268003156449	0.8880796563674764	1.4298658281023535	0.3474003408110197	1.1478442985554649	1.4118670559478266	0.1721844538685966	0.7035335219047887	0.5395819754009139	0.1880010121712073	0.8937862163669079	0.9557578945592743	0.1897814439965603	1.0574138141377944	1.3463146377316153	0.1719321214697453	0.8952640112578267	1.408404286570194	0.12185430763573979	0.9345043544507495	1.4038657929636844	0.20588988425340177	1.1480919229905842	1.4185223238335294	0.2744905976556604	0.5233897671196791	-0.08191344088541806	0.2561996939077305	0.41166229407285015	-0.32029034003195356	0.2588097523820134	0.33665427078173926	-0.16782751968102771	0.4458602129692286	0.5175784946570215	0.020474260204474046	0.5178725117200487	0.6197604174859289	0.29371697173205086	0.49611830308145455	0.6489462427327964	0.5799490792311759	0.4267890848721671	0.6570971878546743	0.6916878584092185	0.45264472623980423	0.6286581377189143	0.7052355422345833	0.47631986252680203	0.6314923506200917	0.7069385604417717	0.09922102851620174	0.5653170420511886	0.012264637929537237	0.05462559810543725	0.6868017708844251	0.27552021064085985	0.0511829803683177	0.6599098425232768	0.5488727807069814	0.11342228518663229	0.6636065749390997	0.6653387241668572	0.07865054023575933	0.7051284271436553	0.7139122058263135	0.052149288009239854	0.7259990638824337	0.700661818355651
353	7.06	0.3907683810514315	0.6899706038893224	0.5484892423597435	0.39535091910697845	0.8832833886180378	0.9799375767229822	0.3589805787636854	1.0242237692786806	1.360158242601858	0.3167303430346651	0.8756833398369123	1.4299553300866976	0.38515278716658624	0.8881086313691238	1.4299316248660556	0.3473913297587878	1.1478698674549135	1.4118317098227122	0.1722430197967802	0.7034868435151437	0.539603674699773	0.18813906230184668	0.8933658936771333	0.9556926603767554	0.18964882022399068	1.0575359033682354	1.3462811505196661	0.17191431308781954	0.8950534328746308	1.4084452133148442	0.12186417196659852	0.9346815551586607	1.4039813993450996	0.20611874444868378	1.1487794232133859	1.4186471598085661	0.27451319705644156	0.5233654858504785	-0.08189541478913144	0.2561794960741571	0.4115442438752703	-0.3202740779283797	0.25881644773769213	0.3366734377848647	-0.16776603439133342	0.44587487219049754	0.5176068397098078	0.020461588379639187	0.5178840191414522	0.6198916595944886	0.2937587839785558	0.4961254017387333	0.6489316030851697	0.579964640228045	0.4267849097371093	0.6570889899704548	0.6916114849326745	0.45352779697421985	0.6310218172197124	0.709247817424333	0.47543199801191416	0.6463174943292421	0.7083378696499368	0.09923730776673952	0.5652911008150556	0.012272454786456975	0.05504135783184443	0.689083325905949	0.2792531645830992	0.051205463499861346	0.6598535345319805	0.5488532011011772	0.11407368782603093	0.6624748678825835	0.6621534903386043	0.08281722936403546	0.7174438658005109	0.7150010956336004	0.05224860071983139	0.7257281063737463	0.7006957881854732
